<?xml version="1.0" encoding="utf-8"?>
<!-- Uploaded to: SVG Repo, www.svgrepo.com, Generator: SVG Repo Mixer Tools -->
<svg width="800px" height="800px" viewBox="0 0 1024 1024" class="icon"  version="1.1" xmlns="http://www.w3.org/2000/svg"><path d="M628.8 324.4h-65.4c-6.3 22.1-26.4 38.3-50.3 38.3-23.8 0-43.9-16.2-50.3-38.3h-65.4l-127.8 93.7 66.4 95.7 61.4-43.4v232.8h231.2V470.3l61.4 43.4 66.4-95.7-127.6-93.6z" fill="#CDE9E3" /><path d="M628.8 713.9H397.5c-6 0-10.8-4.8-10.8-10.8V491.2l-44.4 31.4c-2.4 1.7-5.3 2.3-8.1 1.8-2.8-0.5-5.4-2.1-7-4.5l-66.4-95.7c-3.3-4.8-2.2-11.4 2.5-14.9l127.8-93.7c1.9-1.4 4.1-2.1 6.4-2.1h65.4c4.8 0 9.1 3.2 10.4 7.8 5.1 17.9 21.5 30.4 39.9 30.4 18.3 0 34.7-12.5 39.9-30.4 1.3-4.6 5.6-7.8 10.4-7.8h65.4c2.3 0 4.5 0.7 6.4 2.1L763 409.3c4.7 3.5 5.8 10.1 2.5 14.9l-66.4 95.7c-1.6 2.4-4.2 4-7 4.5-2.9 0.5-5.8-0.2-8.1-1.8l-44.4-31.4v211.9c0 6-4.8 10.8-10.8 10.8z m-220.5-21.6H618v-222c0-4 2.3-7.8 5.8-9.6 3.6-1.9 7.9-1.6 11.2 0.8l52.5 37.1 54.2-78-116.5-85.4H571c-10 22.9-32.7 38.3-57.9 38.3-25.2 0-47.9-15.4-57.9-38.3H401l-116.5 85.4 54.2 78 52.5-37.1c3.3-2.3 7.6-2.6 11.2-0.8 3.6 1.9 5.8 5.6 5.8 9.6v222h0.1z" fill="#211F1E" /></svg>