<?xml version="1.0" encoding="utf-8"?>
<!-- Uploaded to: SVG Repo, www.svgrepo.com, Generator: SVG Repo Mixer Tools -->
<svg width="800px" height="800px" viewBox="0 0 1024 1024" class="icon"  version="1.1" xmlns="http://www.w3.org/2000/svg"><path d="M642 614l-78.9-78.9V285.4H406.3V600l124.8 124.8c30.6 30.6 80.3 30.6 110.9 0 30.6-30.5 30.6-80.2 0-110.8z" fill="#20B573" /><path d="M439.7 534.5c-9.6 0-18.5 3.5-25.9 9.5V595.2l42.9 42.9c16.7-8 28.6-27.3 28.6-49.9 0.1-29.6-20.4-53.7-45.6-53.7zM543.2 717.4L646.8 618s49.4 57.4 6.5 106c-42.8 48.6-91.7 21.7-110.1-6.6z" fill="#2ECC71" /><path d="M662.5 605.7l-76.7-81.9V281.4c0-9.6-7.8-17.4-17.4-17.4H411.6c-9.6 0-17.4 7.8-17.4 17.4V596c0 4.6 1.8 9.1 5.1 12.3l127.7 133c18.1 18.1 42.2 28.1 67.8 28.1s49.7-10 67.8-28.1c37.3-37.4 37.3-98.2-0.1-135.6zM533.6 298.8H551V386h-17.4v-87.2z m-34.9 0h17.4V386h-17.4v-87.2z m-34.8 0h17.4V386h-17.4v-87.2z m-34.9 0h17.4V386H429v-87.2z m0 241.1h0.2c27.8 0 50.5 22.6 50.5 50.5 0 13.2-5.2 25.7-14.2 35L429 588.8v-48.9z m48.8 97.7c12.2-12.6 19.3-29.4 19.3-47.3 0-37.4-30.5-67.9-67.9-67.9h-0.2v-119h122V531c0 4.6 1.8 9.1 5.1 12.3l72.8 78.1L541 706l-63.2-68.4z m160.1 79c-11.5 11.5-26.8 17.9-43.1 17.9-15.5 0-30-5.8-41.3-16.2l87.7-84.4c20.3 23.9 19.3 60.1-3.3 82.7z" fill="#211F1E" /></svg>