<?xml version="1.0" encoding="utf-8"?>
<!-- Uploaded to: SVG Repo, www.svgrepo.com, Generator: SVG Repo Mixer Tools -->
<svg width="800px" height="800px" viewBox="0 0 1024 1024" class="icon"  version="1.1" xmlns="http://www.w3.org/2000/svg"><path d="M454.4 273.4h126.5v480.7H454.4z" fill="#F7BE29" /><path d="M644.2 513.8c0 69.9-56.6 126.5-126.5 126.5s-126.5-56.6-126.5-126.5 56.6-126.5 126.5-126.5c69.9-0.1 126.5 56.6 126.5 126.5z" fill="#FAE274" /><path d="M517.7 511.1v-67c0-3.5-2.8-6.3-6.3-6.3s-6.3 2.8-6.3 6.3v69.6c0 0.8 0.2 1.6 0.5 2.4 0.3 0.8 0.8 1.5 1.4 2.1l54.8 54.8c1.2 1.2 2.9 1.9 4.5 1.9s3.2-0.6 4.5-1.9c2.5-2.5 2.5-6.5 0-8.9l-53.1-53z" fill="#211F1E" /><path d="M645.1 475.2c-9.5-32.8-30.7-60.7-58.8-78.7V273.4c0-7-5.7-12.7-12.7-12.7H447.1c-7 0-12.7 5.7-12.7 12.7v124.5c-37.5 25-62.2 67.6-62.2 115.9 0 48.3 24.7 90.9 62.2 115.9v124.5c0 7 5.7 12.7 12.7 12.7h126.5c7 0 12.7-5.7 12.7-12.7V631c28.1-18 49.4-45.9 58.8-78.7 10.3-2.3 18.1-11.5 18.1-22.5v-32.1c0-11-7.8-20.2-18.1-22.5zM459.7 286h101.2v12.7H459.7V286z m0 25.3h101.2V324H459.7v-12.7z m0 25.3h101.2v12.7H459.7v-12.7z m0 25.3h101.2v21.8c-15.4-5.9-32.1-9.1-49.5-9.1-18.3 0-35.7 3.6-51.7 10v-22.7z m101.2 379.6H459.7v-12.6h101.2v12.6z m0-25.3H459.7v-12.7h101.2v12.7z m0-25.3H459.7v-12.7h101.2v12.7z m0-25.3H459.7v-22.7c16 6.4 33.4 10 51.7 10 17.5 0 34.1-3.3 49.5-9.1v21.8z m45.4-145.5h18.6c-3.2 57.7-49.5 104-107.3 107.2v-18.6c0-3.5-2.8-6.3-6.3-6.3s-6.3 2.8-6.3 6.3v18.6c-57.7-3.2-104-49.5-107.2-107.2h18.6c3.5 0 6.3-2.8 6.3-6.3s-2.8-6.3-6.3-6.3h-18.6c3.2-57.7 49.5-104 107.2-107.2v18.6c0 3.5 2.8 6.3 6.3 6.3s6.3-2.8 6.3-6.3v-18.6c57.7 3.2 104.1 49.5 107.3 107.2h-18.6c-3.5 0-6.3 2.8-6.3 6.3 0 3.4 2.8 6.3 6.3 6.3z" fill="#211F1E" /></svg>